# xmcd
#
# Track frame offsets: 
#        150
#        13612
#        27862
#        41887
#        67087
#        85799
#        100724
#        115199
#        132899
#        145086
#        159861
#        171411
#        184236
#
# Disc length: 2641 seconds
#
# Revision: 0
# Processed by: cddbd v1.5.2PL0 Copyright (c) Steve Scherf et al.
# Submitted via: ExactAudioCopy v0.99pb5
#
DISCID=a90a4f0d
DTITLE=Heinz&Marcel Brunner - Piano-Brothers
DYEAR=2009
DGENRE=Blues
TTITLE0=Drive In
TTITLE1=How Long Blues
TTITLE2=Honky Tonk Train Blues
TTITLE3=Go For A Walk
TTITLE4=Boogie Woogie Stomp
TTITLE5=23th Street Boogie
TTITLE6=Bulan Blues
TTITLE7=Improjam
TTITLE8=Sixth Avenue Express
TTITLE9=I Can't Sleep
TTITLE10=Dallas-Fort Worth Breakdown
TTITLE11=Bugle Boogie Nr.2
TTITLE12=Indiana Avenue Stomp
EXTD=
EXTT0=
EXTT1=
EXTT2=
EXTT3=
EXTT4=
EXTT5=
EXTT6=
EXTT7=
EXTT8=
EXTT9=
EXTT10=
EXTT11=
EXTT12=
PLAYORDER=
